<svg width="30" height="30" viewBox="0 0 30 30" fill="none" xmlns="http://www.w3.org/2000/svg">
<path d="M28.25 30C24.6667 30 21.1739 29.2011 17.7717 27.6033C14.3683 26.0067 11.3544 23.8956 8.73 21.27C6.10444 18.6456 3.99333 15.6317 2.39667 12.2283C0.798889 8.82611 0 5.33333 0 1.75C0 1.25 0.166667 0.833333 0.5 0.5C0.833333 0.166667 1.25 0 1.75 0H8.5C8.88889 0 9.23611 0.125 9.54167 0.375C9.84722 0.625 10.0278 0.944444 10.0833 1.33333L11.1667 7.16667C11.2222 7.55556 11.2156 7.90944 11.1467 8.22833C11.0767 8.54833 10.9167 8.83333 10.6667 9.08333L6.625 13.1667C7.79167 15.1667 9.25722 17.0417 11.0217 18.7917C12.785 20.5417 14.7222 22.0556 16.8333 23.3333L20.75 19.4167C21 19.1667 21.3267 18.9789 21.73 18.8533C22.1322 18.7289 22.5278 18.6944 22.9167 18.75L28.6667 19.9167C29.0556 20 29.375 20.1872 29.625 20.4783C29.875 20.7706 30 21.1111 30 21.5V28.25C30 28.75 29.8333 29.1667 29.5 29.5C29.1667 29.8333 28.75 30 28.25 30ZM5.04167 10L7.79167 7.25L7.08333 3.33333H3.375C3.51389 4.47222 3.70833 5.59722 3.95833 6.70833C4.20833 7.81944 4.56944 8.91667 5.04167 10ZM19.9583 24.9167C21.0417 25.3889 22.1461 25.7639 23.2717 26.0417C24.3961 26.3194 25.5278 26.5 26.6667 26.5833V22.9167L22.75 22.125L19.9583 24.9167Z" fill="#1C1B1F"/>
</svg>
