<svg width="40" height="41" viewBox="0 0 40 41" fill="none" xmlns="http://www.w3.org/2000/svg">
<mask id="mask0_418_1303" style="mask-type:alpha" maskUnits="userSpaceOnUse" x="0" y="0" width="40" height="41">
<rect y="0.5" width="40" height="40" fill="#D9D9D9"/>
</mask>
<g mask="url(#mask0_418_1303)">
<path d="M25.5007 28.3335L27.834 26.0002L21.6673 19.8335V12.1668H18.334V21.1668L25.5007 28.3335ZM20.0007 37.1668C17.6951 37.1668 15.5284 36.729 13.5007 35.8535C11.4729 34.9791 9.70898 33.7918 8.20898 32.2918C6.70898 30.7918 5.52176 29.0279 4.64732 27.0002C3.77176 24.9724 3.33398 22.8057 3.33398 20.5002C3.33398 18.1946 3.77176 16.0279 4.64732 14.0002C5.52176 11.9724 6.70898 10.2085 8.20898 8.7085C9.70898 7.2085 11.4729 6.02072 13.5007 5.14516C15.5284 4.27072 17.6951 3.8335 20.0007 3.8335C22.3062 3.8335 24.4729 4.27072 26.5007 5.14516C28.5284 6.02072 30.2923 7.2085 31.7923 8.7085C33.2923 10.2085 34.4795 11.9724 35.354 14.0002C36.2295 16.0279 36.6673 18.1946 36.6673 20.5002C36.6673 22.8057 36.2295 24.9724 35.354 27.0002C34.4795 29.0279 33.2923 30.7918 31.7923 32.2918C30.2923 33.7918 28.5284 34.9791 26.5007 35.8535C24.4729 36.729 22.3062 37.1668 20.0007 37.1668ZM20.0007 33.8335C23.6951 33.8335 26.8412 32.5352 29.439 29.9385C32.0357 27.3407 33.334 24.1946 33.334 20.5002C33.334 16.8057 32.0357 13.6596 29.439 11.0618C26.8412 8.46516 23.6951 7.16683 20.0007 7.16683C16.3062 7.16683 13.1607 8.46516 10.564 11.0618C7.96621 13.6596 6.66732 16.8057 6.66732 20.5002C6.66732 24.1946 7.96621 27.3407 10.564 29.9385C13.1607 32.5352 16.3062 33.8335 20.0007 33.8335Z" fill="#2D8456"/>
</g>
</svg>
