<svg width="20" height="34" viewBox="0 0 20 34" fill="none" xmlns="http://www.w3.org/2000/svg">
<path d="M10 33.6663C7.05556 33.6663 4.65278 33.2013 2.79167 32.2713C0.930556 31.3402 0 30.1386 0 28.6663C0 27.6941 0.402778 26.8469 1.20833 26.1247C2.01389 25.4025 3.125 24.833 4.54167 24.4163L5.5 27.583C5.02778 27.7219 4.59722 27.8958 4.20833 28.1047C3.81944 28.3125 3.55556 28.4997 3.41667 28.6663C3.77778 29.1108 4.61111 29.4997 5.91667 29.833C7.22222 30.1663 8.58333 30.333 10 30.333C11.4167 30.333 12.785 30.1663 14.105 29.833C15.4239 29.4997 16.2639 29.1108 16.625 28.6663C16.4861 28.4997 16.2222 28.3125 15.8333 28.1047C15.4444 27.8958 15.0139 27.7219 14.5417 27.583L15.5 24.4163C16.9167 24.833 18.0211 25.4025 18.8133 26.1247C19.6044 26.8469 20 27.6941 20 28.6663C20 30.1386 19.0694 31.3402 17.2083 32.2713C15.3472 33.2013 12.9444 33.6663 10 33.6663ZM10 22.5413C10.5 21.6247 11.0278 20.7841 11.5833 20.0197C12.1389 19.2563 12.6806 18.5275 13.2083 17.833C14.2361 16.4997 15.0556 15.298 15.6667 14.228C16.2778 13.1591 16.5833 11.833 16.5833 10.2497C16.5833 8.41634 15.9444 6.86079 14.6667 5.58301C13.3889 4.30523 11.8333 3.66634 10 3.66634C8.16667 3.66634 6.61111 4.30523 5.33333 5.58301C4.05556 6.86079 3.41667 8.41634 3.41667 10.2497C3.41667 11.833 3.72222 13.1591 4.33333 14.228C4.94445 15.298 5.76389 16.4997 6.79167 17.833C7.31944 18.5275 7.86111 19.2563 8.41667 20.0197C8.97222 20.7841 9.5 21.6247 10 22.5413ZM10 28.6663C9.69444 28.6663 9.41667 28.5758 9.16667 28.3947C8.91667 28.2147 8.73611 27.9719 8.625 27.6663C7.98611 25.6941 7.18056 24.0413 6.20833 22.708C5.23611 21.3747 4.29167 20.0969 3.375 18.8747C2.48611 17.6525 1.71556 16.3886 1.06333 15.083C0.41 13.7775 0.0833336 12.1663 0.0833336 10.2497C0.0833336 7.4719 1.04167 5.12467 2.95833 3.20801C4.875 1.29134 7.22222 0.333008 10 0.333008C12.7778 0.333008 15.125 1.29134 17.0417 3.20801C18.9583 5.12467 19.9167 7.4719 19.9167 10.2497C19.9167 12.1663 19.5972 13.7775 18.9583 15.083C18.3194 16.3886 17.5417 17.6525 16.625 18.8747C15.7361 20.0969 14.7989 21.3747 13.8133 22.708C12.8267 24.0413 12.0139 25.6941 11.375 27.6663C11.2639 27.9719 11.0833 28.2147 10.8333 28.3947C10.5833 28.5758 10.3056 28.6663 10 28.6663ZM10 13.7913C10.9722 13.7913 11.8056 13.4441 12.5 12.7497C13.1944 12.0552 13.5417 11.2219 13.5417 10.2497C13.5417 9.27745 13.1944 8.44412 12.5 7.74967C11.8056 7.05523 10.9722 6.70801 10 6.70801C9.02778 6.70801 8.19444 7.05523 7.5 7.74967C6.80556 8.44412 6.45833 9.27745 6.45833 10.2497C6.45833 11.2219 6.80556 12.0552 7.5 12.7497C8.19444 13.4441 9.02778 13.7913 10 13.7913Z" fill="#1C1B1F"/>
</svg>
