<svg width="57" height="71" viewBox="0 0 57 71" fill="none" xmlns="http://www.w3.org/2000/svg">
<path d="M3.80956 27.3572C4.54011 22.4218 6.79895 17.4528 11.0433 12.9193C20.6523 2.65577 36.3522 2.65577 45.9612 12.9193C49.0538 16.2224 51.1468 20.1958 52.2494 24.4084C52.2179 24.2792 52.182 24.15 52.1463 24.0206H57C55.7675 18.6447 53.1905 13.5608 49.2733 9.37688C37.8358 -2.83982 19.1643 -2.83982 7.72669 9.37688C3.80956 13.5608 1.23699 18.6495 0 24.0206H4.53562C4.21292 25.1312 3.97091 26.2466 3.80956 27.3572Z" fill="white"/>
<path d="M52.1678 38.0006C51.0428 41.641 48.9762 45.0689 45.9641 47.9267C29.8448 63.22 7.82204 51.4226 4.09704 35.5H4.08809C4.29428 36.3719 4.54978 37.2308 4.85907 38.0773H0C1.23718 42.8446 3.81017 47.3611 7.72342 51.0739L28.5 70.7857L49.2767 51.0739C53.1899 47.3611 55.7629 42.8446 57 38.0773H52.1455L52.1678 38.0006Z" fill="white"/>
<path d="M48.8571 31.433C48.8571 26.744 47.2703 22.429 44.6074 18.9898V19.0354C40.8866 14.1958 35.0409 11.0713 28.4658 11.0713C18.0329 11.0713 9.4378 18.9214 8.25225 29.0338V29.3531C8.18386 30.0373 8.14282 30.7305 8.14282 31.4284C8.14282 32.1309 8.18386 32.8243 8.25225 33.5038V33.8232C9.4378 43.9402 18.0376 51.7856 28.4658 51.7856C35.0409 51.7856 40.8866 48.661 44.6074 43.8216V43.8671C47.2703 40.4324 48.8571 36.122 48.8571 31.433ZM26.0673 46.8138C19.3964 45.783 14.1207 40.5056 13.0902 33.8323H16.3641C21.731 33.8505 26.0718 38.2066 26.0718 43.5799V46.8138H26.0673ZM28.4658 33.9509C27.075 33.9509 25.9487 32.8243 25.9487 31.433C25.9487 30.0419 27.075 28.9152 28.4658 28.9152C29.8564 28.9152 30.9827 30.0419 30.9827 31.433C30.9827 32.8243 29.8564 33.9509 28.4658 33.9509ZM30.8641 46.8138V43.5752C30.8641 38.2021 35.2051 33.846 40.572 33.8278H43.8459C42.8109 40.5056 37.5396 45.783 30.8641 46.8138ZM34.4209 29.0338C33.4725 26.6756 31.1605 25.0107 28.4658 25.0107C25.7709 25.0107 23.4591 26.6756 22.5107 29.0338H13.0902C14.2438 21.5759 20.6913 15.8652 28.4658 15.8652C36.2447 15.8652 42.6876 21.5759 43.8413 29.0338H34.4209Z" fill="white"/>
</svg>
